<?xml version="1.0" encoding="utf-8"?>
<!-- Generator: Adobe Illustrator 21.0.0, SVG Export Plug-In . SVG Version: 6.00 Build 0)  -->
<svg version="1.1" id="Layer_1" xmlns="http://www.w3.org/2000/svg" xmlns:xlink="http://www.w3.org/1999/xlink" x="0px" y="0px"
	 viewBox="0 0 800 800" style="enable-background:new 0 0 800 800;" xml:space="preserve">
<style type="text/css">
	.st0{fill:#652D90;}
	.st1{fill:#FFFFFF;}
</style>
<rect x="-17" y="-17" class="st0" width="834" height="834"/>
<g>
	<path class="st1" d="M545.5,401.5c-15.3,19.1-50,55.3-58.8,56.3c-4,0.4-0.6-16.2,6.9-36.2c47.3-11.6,70.3-70,69.4-78.9
		c-1-9.5-6.6-16.7-31.3-14.1c-40.1,4.3-85.9,120.1-84.6,132.8c1.4,13.1,18.2,29.6,37.5,27.6c18.9-2,25.5-2.9,63.5-74.6 M539.7,355.6
		c12.9-1.4-13.9,39-40.8,52.6C509.9,382.9,525.6,357.1,539.7,355.6z"/>
	<path class="st1" d="M578.3,461.6c0,0,10.2-69.7,1.2-88.1c-5.4-10.9-19.8-0.6-19.8-0.6c-8.7,9.2-6,42.2,0.6,79.4
		c-2,37.8-9.1,107-33.5,142.9c0,0-59.2-108.3-167.7-61.5c0,0-8.7,0.3-0.6,12.2c23,33.9,154.9-40.3,119.1,130.8
		c0,0-2.2,19.3,16.8,15.6c17.6-3.5,59.7-105.1,77.9-182.9L578.3,461.6z"/>
	<path class="st1" d="M684.9,386.3c10.1-30.3,0-36.7,0-36.7s-29.7-20.6-91.6,94.5c0,0-9.4,21.1-9.2,30.4c0.2,9.3,22.7,20,32.6,17.9
		C654.7,484,684.9,386.3,684.9,386.3z M669.3,380c3.9-0.1,2.2,9.2,2.2,9.2c-3.6,9.8-36,65.1-46.9,61.9
		C614.4,448.2,650.2,380.4,669.3,380z"/>
	<g>
		<path class="st1" d="M587.9,156.6c-50,8.2-134.3,197.5-134.3,197.5c-15.9,31.3-33.8,62.4-59.2,86.4c-4.4,4.1-9.5,7.6-14.9,10.3
			c-7.5,3.6-10.6,1.4-10.6-6.8c0-3.2-0.3-6.7,0.7-9.7c6.2-18.6,11.5-37.6,19.5-55.5c3.7-8.2,7.5-16.4,11.4-24.4
			c19.8-5,40.2-11.9,49.9-21.1c1.4-1.3,3.9-10.5,5-11.6c-2.9,2.6-15,12.1-49.5,21.5c22-44.1,47-86.5,74.3-127.7
			c18.8-28.3,38.5-55.8,61.4-81c4.1-4.5,8.2-9.1,12.7-14.2c-13.5-8.9-27.8-13.2-43.3-12.8c-6.6,0.1-11.7,3.7-15.5,10
			c-5.1,8.3-11.3,16.1-18.1,23c-14.9,15.4-30.2,30.3-45.8,45c-20.2,19.2-41.1,37.8-61.3,57c-23.1,22-45.8,44.4-68.4,66.8
			c-10.7,10.6-20.8,21.8-31.8,33.4l-13.7,13.6c-9.3,8.9-18.1,18.4-27.5,27.1c-18.5,17.2-36.8,34.6-56.1,50.9
			c-13.1,11.1-27.6,20.5-44.9,24.1c-5.5,1.1-11.3,0.4-17.4,0.5c0.5,1.5,0.9,2.5,1.1,3.5c3.9,21.1,17.1,34.3,38.2,37.8
			c5.5,0.9,10.2-0.2,14.3-5.2c17.5-21.4,35.2-42.7,53.3-63.5c12.7-14.6,25.6-28.7,39-43c0,0,0,0,0,0l0,0c3.7-4.1,7.4-8.1,11.1-12.2
			l5.3-5c5.5-2.7,10.6-3.3,21.6-4c0,0,0,0,0,0c14.8-0.7,32.6-1.6,50.8-3.6l-30.5,67c-7.9,26.3,0,40.3,0,40.3
			c2.5,6.1,6.8,12.6,12.1,16.2c12.5,8.4,26.3,7.5,39.8,1.6c14.3-6.3,26.5-15.6,37.7-26.4c22.9-22.1,42.5-47.1,59.8-73.9
			c3.5-5.5,6.8-12.3,11.4-16.8L566,261.8C566,261.8,658.1,145.1,587.9,156.6z M290.7,351c36.9-37.2,74.3-74.9,111.7-112.6
			l-51.6,113.4C333.2,353,313.2,352.9,290.7,351z"/>
	</g>
</g>
</svg>
